<?xml version="1.0" encoding="utf-8"?>
<!-- Generator: Adobe Illustrator 25.0.1, SVG Export Plug-In . SVG Version: 6.00 Build 0)  -->
<svg version="1.1" id="Layer_1" xmlns="http://www.w3.org/2000/svg" xmlns:xlink="http://www.w3.org/1999/xlink" x="0px" y="0px"
	 viewBox="0 0 1080 1080" style="enable-background:new 0 0 1080 1080;" xml:space="preserve">
<style type="text/css">
	.st0{fill:#CB3E3E;}
	.st1{fill:#007459;}
	.st2{fill:none;}
	.st3{fill-rule:evenodd;clip-rule:evenodd;}
</style>
<path d="M939.6,295.8c0,0.7,0.2,1.4,0.4,2.3c1.9-0.9,3.2-2.6,3.4-4.6c0.3-3.6,0.8-7.2,0.9-10.8c0.5-9.9,0.9-19.8,1.3-29.7
	c0.1-2.1,0.3-4.3,0.4-6.5c0.3-7.7,0.5-15.5,0.7-23.2c0.1-3,0.1-6.1,0.1-9c0.1-6.1,0.3-12.3,0.2-18.4c-0.1-2.1-0.5-4.3-1.1-6.3
	c-0.6-1.6-2.3-2.5-4-2.4c-1.3,0.1-2.1,1.1-2.4,2.9c-0.1,1-0.2,1.9-0.2,2.9c0,4.6,0.1,9.3,0,14c-0.1,7.5-0.3,14.9-0.4,22.4
	c-0.1,5.2,0,10.5-0.1,15.7c-0.2,5.9-0.6,11.8-0.7,17.7c-0.1,5.3-0.1,10.6,0.1,15.9C938.7,284.4,939.2,290.1,939.6,295.8z"/>
<path d="M883.6,507.2h0.1v-1h-0.1V507.2z"/>
<path d="M899.4,312.2c0,1-0.2,1.9-0.5,2.8c-0.2,0.9-1.3,1.3-1.5,2.3c6.4-0.2,13.7,0.1,19.8-0.3c8-0.5,15.9-1.3,23.8-1.9
	c1-0.1,2-0.3,2.9-0.6c2.2-0.7,3.4-2.5,2.8-3.6c-0.6-1.1-2.1-1.7-5.3-1.6c-3.2,0.1-5.9,0.4-8.9,0.6c-8.7,0.7-17.3,1.6-26.1,2.2
	C904.2,312.3,901.9,312.3,899.4,312.2z"/>
<path class="st0" d="M882.1,376.1c14.1,8.2-0.1,18.3,12.7,5.2C892.4,366.9,886.9,379.9,882.1,376.1z"/>
<path class="st1" d="M904.1,320c0.1,0.3,0.3,0.6,0.4,1c0-0.3-0.1-0.6-0.2-1C904.2,319.9,904.1,320,904.1,320z"/>
<path class="st1" d="M932.8,312.9c-1.8-4.7-0.7-7.5-1.5-12l3-2.8c-1-4.9-2.5-2-4.1-5.5c1.9-4.6,0.1-14.1,0.2-16.2
	c1.3-1.6,1.9,1.7,2.7,2.4c-1-5.7-3.9-5.2-4-12.4l0.8-0.2c-4.3-17-3.3-38.9-6.1-58c-0.1,1.3-0.8,1-1.3,1.6
	c-1.2-20.2-1.5-43.6-8.6-59.2c0.8,10.9-3.8,29.7,1.5,40.6c-2.1,4.2,1,10.4-2,12.3c-1.2,16,4.1,22.2,4.3,37.4c-0.5,2.2-2,1.3-3.4,2
	l-1.5-11.9l-1.1,7.5c-1.3-3.1-0.4-11-3.1-11.7c3.3,10.4,0.8,27.5,4.7,36.5c0.6-4.4-0.2-9.8,0-14.9c0.9-2.3,1.6-5.9,3-5.7
	c4.2,14.5,2.2,26.8,3.6,41.8c0.3,3.8,0.1,8.9-1.3,9.6c-0.5-2.5-1.7-0.5-2.3-2.5c1.2,5.3,5.1,0.2,4.6,8l-4.9-0.7
	c5.2,2.8-0.9,9.5,2.2,14.9c-2,2.1-3.1-1.5-3.3-5.7c-0.8,4.9,2,5.2,2,9l-4.1-3.5c4,3.9-0.7,7.4-2.1,9.8c1,0.2,4.2-2.1,4,3
	c-0.5,2.2-1.6,1.2-2.2,1.7c1,0.2,2.9,2,3.1,5.3c-1.3,0.7-2.1-2.1-3.5-2.3c0.1,2.6,0.4,4.6-0.8,6.5c1.2,4.5,2-0.4,3.5,2.3
	c-1,7-4.9,1-7.8,3.7c-2-5.2-2.7-11.8-3.8-14.5l1.2,10c-1.7-0.5-2.8,7-4.4,1.8c-1.5,10.1,0.4,22.1,1.8,31.6c0.6-1.4,0.9-3.2,1.9-2.9
	c1,4.9-1.1,4.5-2.2,5.5c1.2,3.6,4,3,6.1,5.2c-2.4,7.7-0.9,8.7-4.3,15.3l2.8-0.6c-2.3,4.7,2,5.2,0.4,10.1c-0.6,0.3-1.3-1.5-2-3
	c1,4.3-2.4,4.2-1.3,8.4l-3.2-3.2c0.1,3.4,1.1,8.3-1.6,6.7c3.3,5.7,2,16.2,4,23.5l-2.5-0.3c3,3.6-0.1,14.1,3.5,17.2l-1,0.6l3.3,7.4
	c-0.1,1.5-1.4,2.8-3,2.7c0.7,7.5,0.9,13.4-0.3,18.4c3.3,1,4.2,8.9,4.7,15.2c-1.9,30.6,1.3,63.2,5.3,91.3c0.1,4.2,3.8,9.9,5.5,15.1
	c0.8-6.5-0.9-7.1-0.9-13.4c0.8-4.9,4.2-6.8,6.3-11.1l-2.8,2.3c-2.3-6.4,1.5-4.6-1.3-9.5h4.5c-2.3-1.7-0.5-6.3,0.7-8.2l-3.1-1.5
	c1.7-4.2,2.4-6.9,5.2-8.3l-2.8,0.6c1.8-1.6-0.4-15.7,4.5-11.1c-0.7-1.1-2.1-2.1-1.8-4.8l2.8-0.6c-0.7-3.7-1.3-7.8,0.3-9
	c0.5,1.5,1.7,2.7,3.2,3.2c0.4-15.8-9.3-2.8-9.6-16.8h1.8l-2-3.4l2.3-3.9c-6.3-4.7,0.5-19.7-2.9-28c-0.5-3.3,3.2-7.9,2.7-14.2
	l-2.8,0.6c2.9-5.3,4.6-24.4,11.1-29.5c-2.2-4.7-0.6,0.5-2.8,0.6c-3-9.2,1.5-10.1,3.1-15.1c-1.4-5.7-1.1,4.5-3.2,1.5
	c2.1-9-3.5-7-1.7-18c1.6-1.2,1.1,2.7,2.2,3.8c-2.9-7.5-1.2-21.9-1.9-33.3c1.9-13.2,2.7-32.5,5.1-47.9l-1-0.2
	c2.7-6.5,0.1-13.2,1.3-20.7L932.8,312.9z"/>
<polygon class="st1" points="909.5,214.2 909.9,213.1 907.8,197.2 "/>
<path class="st0" d="M901.4,429.9c-11.6,11.3-18.3-4.5-8.3,10.7C908.1,441.7,896.4,433.4,901.4,429.9z"/>
<path class="st0" d="M902.9,496.7c-16.5-1-8.6-16.3-13.8,1C898.1,509.4,896.9,495.4,902.9,496.7z"/>
<path class="st2" d="M898.4,637.8c-2.2-0.7-3.6,0-5.3,0.9C895,638.6,896.6,638.8,898.4,637.8z"/>
<path class="st2" d="M779.4,775.2c0.4-0.1,0.8,0.2,0.9,0.6c0,0,0,0,0,0h0.6c-0.5-5.5-0.9-10.9-1.3-16.4c-0.3-4.5-0.3,5.4-0.3,15.9
	L779.4,775.2z"/>
<path class="st2" d="M898.4,637.8c-2.2-0.7-3.6,0-5.3,0.9C895,638.6,896.6,638.8,898.4,637.8z"/>
<path d="M958.2,670.6c-0.3-0.3-0.8-0.3-1.3-0.5c-2.6-0.9-5.3-1.4-8-1.5c-1.7,0-1.9-0.3-1.8-1.8c0.1-1.5,0.2-3,0.3-4.4
	c0.5-6.8,0.6-13.7,0.3-20.6c-0.1-1-0.1-2.1,0-3.1c0.1-2.1,0.3-4.1,0.5-6.2c0.2-2.1-0.9-4.2-1.5-6.2c-0.8-3.2-2-6.3-3.7-9.3
	c-0.7-1.5-2-2.7-3.6-3.3c-1.6-0.7-3.4-0.3-4.7,0.8c-2.2,2.3-2.5,4.5-1.3,7.5c0.5,1.3,0.9,2.6,1.2,4c-0.7,0.1-1.3,0.2-2,0.2
	c-2.4-0.1-4.9-0.2-7.3-0.4c-6.9-0.4-13.7-0.9-20.6-1.3c-8.8-0.5-17.7-0.5-26.6,0.2c-0.9,0-1.8,0-2.7-0.1c0-0.7,0-1.3,0-2
	c0.5-3.1,1.1-6.3,1.5-9.4c0.9-6.2,1.7-12.4,2.5-18.7c0.5-4.2,0.9-8.4,1.2-12.6c0.5-7.3,1.3-14.6,1.5-21.9c0.3-12-0.1-23.9-1.1-35.9
	c-0.1-1.6,0-3.2,0-4.9s-0.2-3.5-0.2-5.3c0-1.8-0.9-3.9,0.6-5.7c0.4-0.5,0.1-1.4,0.2-2.1c0.1-4.2-1.2-8.5,0.2-12.7
	c0.1-0.3,0.1-0.6,0.1-0.9c0.1-2.7,0.2-5.3,0.3-8c0-4.6,0-9.3,0.1-14c0-0.7,0.1-1.4,0.2-2h0.8c0.4,6.6,0,13.2,0.5,19.8
	c0.3-1.4,0.4-2.8,0.4-4.3c0-2.6-0.3-5.2-0.3-7.7c0-4.2,0.3-8.4,0.3-12.6c0-3.9-0.2-7.8-0.2-11.7c0-1.2,0-2.3,0-3.5
	c0.1-3.6,0.4-7.3,0.1-10.8c-0.4-5.7-1.2-11.5-2-17.2c-1.3-8.4-2.7-16.8-4.2-25.1c-0.9-3.8-0.5-7.8,1.1-11.4c1.2-2.6,2.2-5.5,1.2-8.6
	c-0.1-0.6-0.1-1.2,0-1.8c1-5.2,0.3-10.3-0.1-15.5c-0.3-3.6-1.1-7.2-1.4-10.7c-0.2-4.2-4-7.5-8.4-7.2c-0.2,0-0.4,0-0.6,0.1
	c-3.8,0.5-7.6,0.9-11.4,1.3c-0.6,0-1.3-0.1-1.9-0.2c1.9-2.6,3.5-5.1,5.3-7.3c4.4-5.5,8.8-10.9,13.3-16.3c0.6-0.6,1.3-0.9,2.1-1
	c2.4-0.2,4.7-0.2,7.1-0.1c4.4,0.1,8.7,0.3,13.1,0.5c2.1,0.1,7.8-0.1,10,0.1c0-0.7-3.5-1-3.6-1.8c-0.1-1.1-0.3-2.1-0.3-3.2v-0.1
	l-23.3-0.4c0-0.6,0-0.9,0.1-1.1c1.3-2,1.2-4.2,1.3-6.5c0-1.6,0.2-3.3,0.2-4.9c0.1-1.5,0-2.9-0.1-4.4c-0.2-2.3-0.7-4.5-0.8-6.8
	c-0.1-2.5,0-5,0-7.5c0-4.6-2.7-7.1-7.4-7c-1.1,0.2-2.2,0.2-3.2-0.2c0.3-1.1,1-2,1.9-2.6c0.6-0.5,1.3-1,1.9-1.6
	c3.7-3.4,7.3-6.9,11.1-10.2c4.8-4.2,9.7-8.3,14.6-12.5c2.3-2,4.6-4.1,7-6.1c1-0.8,1.7-2,1.8-3.2c0.2-3.5,0.5-7.1,0.5-10.6
	c0-3.5-0.4-7.4,0.4-11c0.5-2.4,0.5-4.8,0.1-7.2c-0.4-3.4-2.9-4.6-6-3.3c-2.5,1.1-5.1,2-7.7,2.7c-4.4,1.4-8.9,2.5-13,4.7
	c-0.5,0.2-1,0.4-1.5,0.6l-7.4,2.8c-0.3,0.1-0.6,0.2-1.4,0.3c0.3-0.4,0.6-0.8,0.9-1.2c4.7-3.7,9.2-7.5,14.1-11
	c5.1-3.7,10.3-7.1,15.5-10.6c3.7-2.6,7.5-5,11.2-7.6c0.8-0.8,2.2-0.9,3.1-0.1c1.6,1.3,3.8,1.8,5.8,1.3c2-0.1,3.8-1.5,4.4-3.3
	c1-2.3,1.3-4.9,0.9-7.4c-0.4-2.3-0.8-4.5-1.1-6.8c-0.3-2.1-0.4-4.3-0.2-6.4c0.8-4.1,1.2-8.3,1-12.5c-0.2-2.1-1.1-4-2.7-5.5
	c-1.8-1.7-4.7-1.9-6.7-0.3c-0.6,0.5-1.1,1-1.6,1.6c-1.5,1.8-3.2,3.4-4.9,4.9c-4.6,3.5-9.4,6.8-14.2,10.1c-4.3,2.9-8.8,5.7-13,8.6
	c-3.3,2.3-6.3,4.8-9.5,7.3c-3.8,3-7.6,6.1-11.5,9.2c-3.8,3-7.6,5.9-11.4,8.9c-2.3,1.8-4.6,3.4-6.8,5.3c-4.4,3.8-8.7,7.6-13.1,11.4
	c-4.4,3.8-8.8,7.3-13.1,11.1c-6.2,5.5-12.2,11.1-18.3,16.7c-0.3,0.2-0.7,0.5-1,0.6c-0.2-0.6-0.3-1.3-0.4-1.9c-0.1-2.5-0.3-5-0.4-7.5
	c-0.2-5.4-0.3-10.8-0.5-16.2c-0.1-4.6-0.5-9.3-0.4-14c0-3.5,0.5-7.1,0.9-10.6c0-0.6,0.2-1.2,1.2-1.1c0.2,0.9,0.6,1.8,1.2,2.6
	c2.4,2.3,3.2,5.5,5.1,8c1,1.3,1.5,2.9,2.4,4.2c0.7,1,1.6,1.9,2.6,2.7c0.8,0.7,2,0.6,2.7-0.2c0,0,0,0,0,0c1.4-1.1,1.5-1.1,2.8,0
	c0.5,0.4,0.8,0.9,1.3,1.3c1.1,1,2.2,2,3.5,2.9c1.6,1.1,2.1,0.9,3.2-0.5c0.6-0.8,1.3-1.6,2.1-2.3c2.8-2.2,5.6-4.3,8.4-6.5
	c1-0.8,2.1-1.5,3.2-2.2c3.8-2.5,7.6-4.9,11.3-7.4c4-2.7,8-5.6,12-8.4c4.3-2.9,8.7-5.7,13-8.6c5.3-3.6,10.5-7.3,15.9-10.9
	c1.1-0.5,1.6-1.7,1.3-2.8c-0.2-0.9-0.5-1.8-0.9-2.7c-0.8-1.8-1.6-3.5-2.4-5.3c-0.6-1.5-1.1-3.1-1.8-4.5c-1.9-3.6-3.4-7.4-4.4-11.3
	c-0.4-2.1-1.6-4-3.3-5.4c-1.8-1.4-2.2-1.6-4.2-0.5c-2,1.1-3.8,2.1-5.7,3.2c-0.3-0.1-0.6-0.3-0.8-0.5c-1.7-1.8-3.8-2-6.1-1.4
	c-1.4,0.2-2.8,0.8-3.9,1.7c-1.6,1.5-4,1.6-5.7,0.3c-3-2.9-6.7-4.3-10.6-5.5c-0.8-0.3-1.6-0.3-2.4,0c-1.2,0.5-2.3,1.1-3.3,1.9
	c-1.6,1-2.3,3-1.7,4.7c0.4,1.4,1,2.7,1.7,3.9c1.7,2.9,1.3,5.3-1.2,7.4c-2,1.7-4,3.4-6.1,5c-4.7,3.8-9.4,7.5-14.1,11.3
	c-0.6,0.4-1.2,0.7-1.8,1c-1.9,1.1-3.4,2.5-2.9,4.9c0.1,0.4-0.1,0.7-0.3,1c-1.1,1-1.6,2.4-3.2,3.1c-1.5,0.6-2.6,1.9-2.9,3.5
	c-0.1,0.4-0.3,0.8-0.6,1.2c-1.2,1.5-2.4,3-3.7,4.8l-0.9-2c-0.3-0.9-0.7-1.8-1.1-2.7c-0.8-1.4-2.3-2.3-4-2.2c-1.5,0-2.9,1.9-3.1,3.7
	c-0.1,0.5-0.1,1-0.1,1.5c-0.4,5.4-0.7,10.9-1.2,16.4c-0.4,5.2-1,10.3-1.5,15.5c-0.4,4-0.6,8-0.9,11.9c-0.5,5.4-1.1,10.7-1.6,16
	c-0.1-2.8,0.1-5.6,0.5-8.3c0-0.4,0-0.7,0-1.1c0-7.5,0-14.9,0-22.4c-0.1-7.2-0.1-14.5-0.4-21.7c0-3.1-2-5.9-5-7.2
	c-2.3-1-4.2,0-4.5,2.4c-0.4,3.1-0.7,6.3-0.9,9.5c-0.1,2.1,0,4.1,0,6.2c0.2,9.8,0.4,19.6,0.6,29.5c0.3,12.3,0.7,24.7,1.1,37
	c0.2,5.7,0.4,11.4,0.6,17c0.2,3.9,0.4,7.8,0.8,11.7c0.4,4,0.9,8.1,1.3,12.1c0.2,1.6,0.4,3.2,0.5,4.8c0.2,2.2,0.4,4.3,0.5,6.5
	c-0.8,0-1.6-0.1-2.4-0.2c-1.1,0.3-2.1,0.7-3.1,1.2c-1.1,0.4-2,1.2-2.5,2.2c-0.3,0.9-0.3,1.8,0.2,2.7c0.4,0.1,0.9,0.1,1.3,0.1
	c2.7,0,5.5-0.2,8.2-0.3c4.6-0.2,9.1-0.2,13.7-0.6c3.9-0.3,7.7-0.8,11.6-1.3c2.3-0.3,2.8,0,3.3,2.1c0.8,3.9,1.6,7.7,2.6,11.6
	c0.2,0.8,0.7,1.5,1.3,2c0.9,0.9,1.5,0.8,2.3-0.1c0.8-0.9,1.3-1.8,2.1-2.6c1.4-1.6,3-2.9,4.8-4c2-1.4,3.8-3,5.9-4.2
	c4.3-2.7,8.7-5.2,13.1-7.7c0.7-0.3,1.5-0.6,2.3-0.8c-0.4,1.3-0.5,2.1-0.8,2.8c-1.8,4-3.1,8.2-3.7,12.5c-0.5,4.6-0.2,9.2,1,13.6
	c0.6,2.5,1,5.1,1.4,7.6c0.1,1.2,0.1,2.5,0,3.7h-3.4c-1.2-0.1-2.4,0.5-3.1,1.6c-1.1,1.4-1.3,3.2-0.5,4.8c0.9,1.7,2,3.3,2.9,5
	c1.3,2.4,2.1,4.9,2.5,7.5c1.3,7.7,2.9,15.5,4.3,23.3c0.5,2.7,0.8,5.4,1.1,8.1c0.3,2.9,0.7,5.9,0.7,8.8c0.1,2.9-0.3,5.9-0.4,8.9
	c-0.2,6-0.3,12-0.5,17.9c-0.1,4.2-0.4,8.4-0.4,12.6c0,5.1,0.2,10.2,0.3,15.3c0.2,10.9,0.4,21.9,0.5,32.8c0,2,0.3,4,0.3,6
	c0.3,5.8,0.5,11.5,0.8,17.3c0.2,4.1,0.7,8.1,1,12.1c0.7,8,1.3,16.1,2,24.1c0.5,5.2,1.2,10.3,1.5,15.5c0.4,6.2,0.4,12.4,0.6,18.6
	c0.2,4.5,0.4,9,0.8,13.5c0.3,4.5,0.9,9.3,1.3,13.9c0.2,1.8,0,2-1.9,2.3c-1.9,0.3-3.5,0.5-5.2,0.7l-19.7,2.2c-0.8,0-1.6,0-2.4,0
	c0-1.1-0.1-2-0.1-2.9c-0.1-6.5-0.2-13-0.3-19.5c-0.2-7.9-0.5-15.8-0.7-23.7c0-1.3-0.1-2.5-0.2-3.8c-0.2-5.2-0.5-10.3-0.7-15.5
	c-0.1-5.2,0-10.6-0.2-16c-0.4-10-0.9-20-1.3-30.1c-0.4-7.7-0.9-15.5-1.3-23.2c-0.3-5.2-0.5-10.5-0.5-15.7c0-5.5,0.3-11.1,0.5-16.6
	c0.3-6.1,0.6-12.2,1.1-18.3c0.1-1.8,0.7-3.6,0.8-5.4c0.2-4.6,0.3-9.1,0.4-13.7c0-0.9,0-1.8,0.2-2.7c0.2-2,0.6-4.1,0.7-6.1
	c0.4-7.2,0.3-14.5,0.1-21.7c-0.2-1.7,0-3.4,0.7-5c0.2-0.6,0.3-1.3,0.2-1.9c-0.1-3.9-0.3-7.8-0.5-11.7c-0.3-5.2-0.6-10.2-0.9-15.3
	c0-0.5-0.1-1-0.3-1.5c-1.3-4.1-2.4-8.2-4.5-12c-1.8-3.2-4.8-5.2-8.1-2.5c-0.1,0.1-0.3,0-0.4,0.1c-1.5-1.1-1.9-1-2.8,0.4
	c-1.6,2.8-2.6,5.9-2.8,9c-0.3,4.3-0.4,8.7-0.3,13c0.2,7.3,0.5,14.6,1,21.9c0.4,6.9,1.2,13.7,1.8,20.5c0.3,3.8,0.4,7.7,0.8,11.4
	c0.7,5.2,1.2,10.4,1.3,15.7c0,0.1,0,0.1,0,0.2c0.6,8.4,1.3,16.8,1.7,25.2c0.4,7.1,0.5,14.2,0.7,21.3c0.1,4.1,0,8.3,0,12.4
	c0,3.2,0.2,6.5,0,9.7c-0.4,5.2-0.5,10.3-0.4,15.5c0.1,1.8,0.3,3.5,0.3,5.3c0.1,9.8,0.1,19.6,0.3,29.5c0.2,8,0.6,16,0.8,23.9
	c0.1,3,0.5,3.6,3.6,3.9c1,0,1.8,0.7,1.8,1.6c0,0.1,0,0.1,0,0.2c0,1.6,0,3.1,0.1,4.7c0.3,7.5,0.6,14.9,0.9,22.4
	c0.2,5.1,0.4,10.2,0.6,15.3c0,0.7,0,1.4-0.1,2.1c-0.2,0.1-0.5,0.3-0.8,0.3c-5,0.6-10,1.2-15,1.8c-0.8,0.1-1.7-0.3-2.2-0.9
	c-2.1-2.3-5.3-3.1-8.4-2.3c-3.1,0.6-5.5,2.5-8,4.1c-1.3,0.8-2.6,1.5-4,2.1c-2.1,0.9-4.2,1.7-6.3,2.6c-1.5,0.7-2.8,1.9-3.4,3.4
	c-0.7,1.1-0.6,2.6,0.4,3.6c-0.4,1-0.5,2.1-0.2,3.1c0.4,1.3-0.6,49.6-0.3,50.9c0.7,3.3,2.4,50.5,3.6,76.8c0.8-0.2,1.6-0.5,2.4-0.6
	c0-10.5,0-20.4,0.3-15.9c0.4,5.5,0.8,10.9,1.3,16.4l1.7-0.2c2.3-1.4,5-0.8,7.6-0.7c0.1-0.1,0.2-0.2,0.3-0.2h0.2l0,0
	c2.4-0.2,4.8-0.4,7.1-0.4c1.9,0,3.7-0.2,5.5-0.6c0.3-6.2,0.1-12.5-0.6-18.7c-0.4-3.3-0.7-25-0.9-28.4c-0.1-0.7-0.1-1.3,0-2
	c0.5-5.8-0.3-11.6-0.8-17.4c-0.4-4-0.9-8.1-1.6-12c-0.2-1.4-1.3-32.9-2.1-44.3h0.9c3.1-0.2,6.2-0.4,9.3-0.6
	c3.9-0.2,7.8-0.1,11.7-0.4c1.4-0.2,2.8-0.6,4.1-1.1c1.5,3.3,2,7.2,4,10.7c2.4-3.6,1.7-7.3,1.4-11.3c5.1-0.6,10-1.2,14.9-1.8
	c4.9-0.6,9.8-1.4,14.9-1.6c0.3,1.6,0.5,3,0.7,4.3c0.2,1.7,0.4,3.4,0.6,5.2c-0.2-0.3-0.5-0.5-0.8-0.4c-4.6,1.5-9,3.4-13.3,5.6
	c-5.3,2.6-16.4,11.8-20.4,16c-1.1,1.3-2.1,2.7-2.9,4.2c-0.7,1.3-2.1,2.2-3.6,2.3c-1.5,0.1-2.9,0.6-4,1.5c0.5,1.3,1.6,2.4,2.9,3
	c1,0.6,1.5,1.3,1.1,2.3c-1,2.5-0.5,5-0.1,7.4c0.5,4,0.6,8.1,0.3,12.1c0,4.5-0.1,9-0.1,13.5c0.1,7.7,0.2,33.9,0.3,41.7
	c0,2.6-7,6.5,0.2,7.7c0.5,0.1,0.3,0.6,0,1.2c2.8-0.5,5.6-0.8,8.4-0.9c3.8-0.2,7.5-0.4,11.3-0.6c6.6-0.3,13.3-0.3,19.9,0.2
	c3.3,0.2,6.5,0.5,9.8,0.6c3.3,0.1,6.6-0.1,9.8-0.3c6.4-0.5,12.9-0.6,19.3-0.3c3.1,0.2,6.2,0.6,9.3,0.9c0.3,0,0.6,0,1,0
	c-0.4-13.2-0.6-41.5-1.1-45.2c-0.3-1.7-0.3-1.7,1.3-2.6c0.3-0.2,0.7-0.3,1-0.5c1.3-0.2,2.3-1.4,2.2-2.7c0.3-3.9,0.8-7.7,1.1-11.6
	c0.4-4.3,0.7-8.7,1.1-13c0.1-1.5,0.1-3.1,0-4.6c-0.3-2.9-1.9-4.2-4.9-3.8c-0.7,0-1.4,0-2,0l-4.3-8.2c1-0.2,1.9-0.5,2.7-0.6
	c5-0.9,10.1-1.7,15.1-2.6c1.9-0.4,3.8-1,5.7-1.5c0.5-0.1,1-0.2,1.6-0.3c1,0,1.6,0.3,1.6,1.4c0.1,1.8,0.5,3.7,0.5,5.5
	c0.2,9.9,0.5,19.8,0.4,29.7c0,5.2-0.9,10.4-1.5,15.6c-0.3,2.6-1.1,32.8-1.6,43.6l0.3,0.1h0.2h0.2h0.4c0.5,0,1,0,1.4,0
	c0.1,0,0.3,0,0.4,0.1c1-0.1,2.1-0.2,3.1-0.2c0.3,0,0.6,0.2,0.7,0.5l0.7,0.1c0.2,0.1,0.4,0.2,0.5,0.4h1.8c0.2,0,0.4,0.1,0.5,0.3
	c0.1,0.1,0.2,0.3,0.2,0.4h1.4c0.4,0.1,0.8,0.1,1.2,0.1h0.9h1.3c0.4-10.1,1.3-46.5,1.7-51c0.3-3.7,0.7-7.3,1-11
	c0.1-1.3,0.3-2.5,0.4-3.7c0.4-4,1.1-7.9,1.3-11.9c0.3-5.8,0.1-11.5,0.2-17.3c0-1.4,0.2-2.8,0.3-4.2c2-0.3,4.1-0.4,6.1-0.1
	c1.4,0.1,2.9,0.2,4.4,0.2c0.7,0,1.5-0.2,1.5-1C958.9,671.6,958.6,671,958.2,670.6z M794.2,236.4c0.1,0.4,0.2,0.8,0.3,1.1
	c0,2.5,0,5,0,7.5c0,2.2-0.1,2.5-2.4,3.9c-0.1-0.4-0.2-0.9-0.2-1.3C792.1,243.8,792.9,240,794.2,236.4z M784.7,302
	c1.2-0.2,0.8-1,0.9-1.7c0-0.9,0-1.8,0.2-2.6c0.5-3,0.6-6,0.3-9c0-0.7,0-1.5,0-2.2c-0.1-4.9-0.3-9.9-0.3-14.8
	c-0.1-1.6-0.1-3.2,0.1-4.8c0.2,0.6,0.6,1.2,1.1,1.7c0.9,0.8,1.3,1.9,1.2,3c-0.1,1,0,1.9,0.2,2.9c0.6,2.8,1.2,5.6,2,8.4
	c0.7,2.3,0.7,4.7-0.1,6.9c-1.3,3.6-2.7,7.2-3.9,10.9c-0.6,1.6-1.3,3.2-1.9,4.9c0-0.7,0-1.4,0-2.1C784.4,302.8,784.5,302,784.7,302z
	 M843.8,261.6c-2.8,2.9-5.6,5.8-8.4,8.8c-4.9,5.4-9.8,10.7-14.4,16.3c-3.7,4.5-7.7,8.7-10.8,13.7c-1.4,1.9-2,4.3-1.5,6.6
	c0.4,1.4,0.7,2.9,1,4.3c0.6,2.2-0.3,3.9-2.7,4.2c-4,0.5-8,0.9-12,1.3c-1,0.1-2,0-3,0.2c-3,0.4-5.9,0.4-8.9,0.1c0-1,0-2,0-3
	c-0.2-1.2,0.2-2.3,1.1-3.1c0.2-0.1,0.1-0.6,0.1-0.8c0-0.3,0-0.6,0-0.9c0.3,0,0.6-0.1,0.9-0.2c1-0.4,2-0.9,3-1.4
	c0.4-0.2,0.8-0.4,1.1-0.7c1.2-1.2,2.2-2.6,3-4.2c2-5.4,3.7-10.9,5.5-16.4c0.5-1.5,0.9-3,1.5-4.4c0.6-1.4,1.7-2.5,3.2-3
	c1.3-0.6,2.5-1.4,3.5-2.4c0.7-0.6,1.4-1.1,2.1-1.6c3.7-1.8,7.4-3.6,11-5.3c2.3-1.1,4.5-2.5,7.3-2.5c0.6-0.1,1.2-0.2,1.7-0.5
	c3.1-1.2,6.2-2.4,9.3-3.7c0.4-0.2,0.8-0.5,1.1-0.7c1.5-0.8,2.9-1.6,4.4-2.3c0.5-0.2,1.1,0,2,0C844.5,260.7,844.1,261.1,843.8,261.6
	L843.8,261.6z M781.9,671.6c-0.7,3.5-1.6,6.9-2,10.4c-0.2,2.4-0.2,4.9-0.1,7.3c0,0.5-0.1,1.1-0.2,1.8c-0.9-0.4-0.7-31.1-1-43.4h0.3
	c2.4,0.5,2.7,1,2.7,3.3c0,1.3,0,2.7,0,4c0.3,4.3,0.7,8.5,0.9,12.8C782.3,669.1,782.2,670.3,781.9,671.6z M791.5,670.5
	c-1-1.6-1.6-3.5-1.8-5.4c-0.2-1.5-0.5-2.9-0.9-4.3c-1-3.3-1.3-6.7-1-10.1c1.3,0.1,2.7,0.3,3.9,0.3c0.2,7,0.6,16.6,1.1,22.3
	C792.4,672.3,792,671.4,791.5,670.5L791.5,670.5z M898.4,637.8c-1.8,1.1-3.4,0.8-5.3,0.9C894.8,637.7,896.3,637.1,898.4,637.8
	L898.4,637.8z M853.4,701.3c-0.5,0-1-0.2-1.3-0.5c-1.1-1.2-2.7-1.8-4.3-1.7c-1.7,0-3.5,0-5.3-0.2c-1.7-0.2-1.9-0.7-1.3-2.3
	c0.1,0,0.3-0.1,0.4,0c1.8,1.3,4,1,6,1.4c3.9,0.8,6.4-0.4,7.9-3.9c1.3-2.9,3.6-3.7,6.8-3.9c0.4,2.8,0.7,5.4,1.1,8.1
	C860.3,699.8,856.9,700.8,853.4,701.3L853.4,701.3z M864.7,697.6c0.1-0.7,0.2-1.4,0.4-2.1c0.4-1.2,0.8-2.3,1.3-3.5
	c0.1-0.5,0.4-0.9,0.8-1.3c0.7-0.6,1.3-1.4,1.6-2.2c0.4-0.6,1-1.1,1.6-1.4c1.3-0.8,2.7-1.6,4.1-2.3c0.8-0.4,1.6-0.7,2.5-0.9
	c2.2-0.6,4.7,0.1,6.1,1.9c1.5,1.6,3.2,2.9,4.9,4.3c0.4,0.4,0.7,0.8,1,1.3C885,693.3,866.9,697.9,864.7,697.6L864.7,697.6z
	 M876.7,672.5c1-0.1,1.5-0.3,1.9-0.2c1.9,0.8,4,1.3,5.2,3.3c-0.6,0.7-1.7,1-2.5,0.5C879.7,675.1,878.4,673.9,876.7,672.5
	L876.7,672.5z M933.7,655.4l-1.6-1.1c-2.1-1.3-4.1-0.6-4.7,1.7c-0.2,0.9-0.2,1.9-0.1,2.8c0.4,3.4,0.9,6.7,1.5,10.2
	c-1.9,0.7-3.9,1.1-5.9,1.3c-5.5,0.6-11,1.3-16.6,2c-1.4,0.2-2.9,0.4-4.3,0.6c-1,0.2-1.7-0.2-1.8-1.2c0-1.1,0.1-2.2,0.3-3.3
	c-1-1.7-2.4-3.9-3.6-6.1c-1.2-1.8-2.9-3.1-4.9-3.8c-2.4-1.1-4.6,0.6-5.6,3.1c-0.7,1.8-0.6,1.9-2.5,1.3c-3.5-1.1-6.9-2.3-10.4-3.4
	c-1.5-0.3-2.5-1.6-2.2-3.1c0.2-1.8-0.3-3.7,0.4-5.5c0.2-0.5-0.2-1.1-0.3-1.7c-0.6-1.4-0.6-2.9,0.1-4.2c2.8-0.3,5.7-0.3,8.5-0.1
	c5.5,0.1,11,0.3,16.5,0.3c2.1-0.1,4.3-0.2,6.4-0.5c1.5,0,2.8-1,3.2-2.3c0.6-1.5,1.2-3,0.5-4.8c1.1-0.2,2.1-0.5,3.1-0.6
	c2.6-0.2,5.2-0.9,7.5-2.1c0.4-0.2,0.9-0.3,1.3-0.3c2.8,0,5.6,0,8.5,0c2.1,0.1,4.3,0.3,6.4,0.5c2.1,0.2,2.4,0.6,2.5,2.7
	c0.2,3.7,0.3,7.4,0.6,11.1C936.4,651.6,935.1,653.4,933.7,655.4L933.7,655.4z"/>
<path class="st1" d="M777,857.9c-2.7,0.3-5.2,0.5-7.8,0.8c-0.4,0-1.1,0.2-1.3,0c-0.8-0.8-1.5-0.4-2.3-0.1l-3.3,1.3
	c1.5,0.7,3,1.4,4.3,0.1c0.2-0.2,0.4-0.2,0.6-0.3c2.1-0.2,4.2-0.3,6.3-0.6c1.3-0.2,2.7,0.3,3.8-0.8
	C777.2,858.1,777.1,857.9,777,857.9z"/>
<path class="st1" d="M779.8,858.6l3.8-0.6C782.4,856.8,782,856.8,779.8,858.6z"/>
<path class="st1" d="M868.2,823.5l-3.8,0.3C866.2,825.1,866.2,825.1,868.2,823.5z"/>
<path class="st1" d="M823.5,851.5"/>
<path class="st1" d="M786.1,857.3c0.8,0.5,1.9,0.4,2.7-0.2L786.1,857.3z"/>
<path class="st1" d="M871.2,823.7l1.1-0.6l-0.3-0.5l-1.1,0.7L871.2,823.7z"/>
<path class="st1" d="M760.5,860.2c-0.2-0.1-0.3-0.3-0.5-0.3c-0.2,0-0.2,0.2-0.3,0.4c0.2,0.1,0.3,0.2,0.5,0.3
	C760.1,860.5,760.3,860.3,760.5,860.2z"/>
<path class="st1" d="M841.3,827.9l-0.1-0.1L841,828L841.3,827.9z"/>
<path class="st1" d="M847.1,827.6l-1.1-1.1c0.1,0.5,0.2,0.9,0.2,1.1L847.1,827.6z"/>
<path class="st1" d="M1057.1,797.2h4.7v-0.4c-1.3-0.3-2.5-0.6-3.8-0.8C1057.3,795.9,1056.9,796.4,1057.1,797.2z"/>
<path class="st1" d="M1039.8,801c-1.3-1.4-2.5,0-3.7-0.1C1037.3,801.6,1038.7,801.7,1039.8,801z"/>
<path class="st1" d="M1003.7,803.2l-0.5,0.5l0.6,0.5c0.1-0.2,0.3-0.3,0.3-0.5C1004,803.5,1003.9,803.4,1003.7,803.2z"/>
<path class="st1" d="M1024.8,798.2h1.3l-1.3-0.4V798.2z"/>
<path class="st1" d="M1042.1,800.7v0.3l1.4,0.2c0-0.1,0.1-0.2,0.1-0.3L1042.1,800.7z"/>
<path class="st1" d="M948.4,809.8c0.3-0.1,0.6-0.2,0.9-0.3c0,0,0-0.2,0-0.4l-0.9,0.2L948.4,809.8z"/>
<path class="st1" d="M965.1,807l0.1-0.3c-0.1,0-0.2,0-0.4,0c0,0,0,0.2,0,0.2C964.9,806.9,965,807,965.1,807z"/>
<path class="st1" d="M845.4,825.7l-1.5,0.3c0.2,0.1,0.5,0.2,0.7,0.3L845.4,825.7z"/>
<path class="st1" d="M987.5,801.9c0,0.1,0.1,0.3,0.2,0.6c0.3-0.2,0.5-0.3,0.6-0.4s-0.2-0.4-0.3-0.4
	C987.8,801.6,987.6,801.7,987.5,801.9z"/>
<path class="st1" d="M957,803.4h-4.4C954.1,803.5,955.6,804.4,957,803.4z"/>
<path class="st1" d="M966,801.6c-0.6-1-1.2-0.9-2-0.3C964.6,802.2,965.2,802.2,966,801.6z"/>
<path class="st1" d="M989.8,797.2l2.8,0.2C991.7,796.4,990.8,796.7,989.8,797.2z"/>
<path class="st1" d="M721.3,882.1c0,0-0.1,0.1-0.1,0.2c0.1,0.1,0.1,0.2,0.2,0.3l0.3-0.3C721.5,882.2,721.4,882.2,721.3,882.1z"/>
<path class="st1" d="M824.7,851l-1.2,0.5c0.5,0.1,0.9,0.3,1.4,0.3c0,0.1,0.1,0.2,0.1,0.4c0.2-0.1,0.3-0.2,0.5-0.3
	c0.5,0,1-0.4,1.1-0.9c0.4-0.3,0.7-0.5,0.9-0.3c0.6,0.3,1.3,0.4,1.9,0.3v0.2c0,0.2,0.4,0.5,0.6,0.5c1.3-0.1,2.7-0.3,4.1-0.5
	c0-0.2,0-0.5,0-0.7c-0.6,0.3-1.3,0.4-2,0.2h0.1c1.3,0,1.3-0.2,1.3-2.1l-8.9,2.6C824.7,850.9,824.7,851,824.7,851z"/>
<path class="st1" d="M813.1,854.2L813.1,854.2l11.5-3.4l-0.1-0.1L813.1,854.2z"/>
<path class="st1" d="M857.3,846.5c-0.3,1.8-1.2,2-2.2,2c-2.3,0-4.6,0-6.8-0.1c-1.8,0-3.7-0.2-5.5-0.3c-2-0.1-3.9,1-4.7,2.7
	c0.8,0.3,1.6,0.5,2.5,0.6c2-0.2,3.9,1.7,6,0.1c0.9-0.7,1.6,0.1,2.3,1.8l-1.1,0.8c0.7,0.1,1.6,0,1.8-0.4c0.5-1.7,1.5-1.4,2.5-1.4h8.9
	c0.2,0,0.6,0,0.7-0.1c0.8-1.4,2.1-1.3,3.3-1.7c-0.5-0.4-1.1-0.7-1.8-0.9c-0.6-0.2-1.3-0.4-2.1-0.6l0.9-2.6
	C860.3,846.2,858.8,846.3,857.3,846.5z"/>
<path class="st1" d="M1079.7,789.3c-0.5,0.8-0.8,1.3-1.1,1.8h-0.2c-1.9-2.1-1.9-2.2-4.6-2.6c-1.5-0.2-3-0.4-4.6-0.4
	c-0.8,0-1.5,0.3-2.1,0.7c-0.8,0.6-1.5,0.5-1.8-0.3c-0.5-1.8-1.6-1.5-2.7-1.6c-1.7-0.2-3.3-0.5-5-0.7c-0.8-0.1-1.7-0.3-2.5-0.4
	c-3.4-0.3-6.9-0.6-10.3-1c-1.1-0.1-2.2-0.6-3.4-0.7c-4.1-0.4-8.3-0.7-12.5-1c-0.7,0-1.3-0.4-2-0.5c-2.7-0.1-5.5-0.1-8.2-0.3
	c-3.9-0.3-7.7-1-11.5-1.3c-8-0.7-16-1.3-24-1.9c-0.4,0-0.8,0-1.1,0c-2.3,0-4.7,0.2-7,0c-7.2-0.3-14.3-0.8-21.5-1.2
	c-2.6-0.1-5.2,0.3-7.7-0.2l-3.9-0.1h-1.3l-0.9,0.1c-0.4,0-0.8,0-1.2-0.1l-11.9-0.2c-5.3,0-11.7-0.1-18.7-0.2
	c-25.4-0.1-59.6,0-89.4,1.2c-5.3,0.2-10.5,0.5-15.4,0.8c-8.2,0.5-27.2,2.7-27.2,2.9c-0.9,0.2-1.6,0.5-2.3,0.6l-1.3,0.2
	c0-0.3,0-0.6,0.1-1l-1.3,0.2c0,0.3,0,0.7,0,1c-4.5,0.7-9,1.5-13.6,2.2c-4.5,0.6-9.1,1.2-13.6,1.5c-0.5,0-0.9,0.1-1.3,0.2
	c-1.8,0.5-2.7,1.7-2.9,4.1c-0.1,1.7,0,3.4,0.2,5.1c0.7,3.5,0.9,7.1,0.5,10.7c-0.1,0.9-0.1,1.8,0,2.7c0,1,0.1,2,0.1,2.9
	c-2.2,0.6-4.4,1.1-6.7,1.3c-4.6,0.3-9.3,1.4-13.9,2.1l-0.9,0.1c-3.9,0.5-7.8,0.8-11.6,1.4c-4.1,0.7-8.2,1.6-12.3,2.3
	s-8.2,0.7-12.2,2.4c-0.6,0.1-1.2,0.2-1.8,0.2c-1.7,0.2-3.3,0.3-5,0.6c-2.4,0.4-4.8,1-7.3,1.3c-3.4,0.3-6.9,0.2-10.3,0.7
	c-2.8,0.3-5.6,1.2-8.4,1.7c-1.7,0.4-3.5,0.7-5.2,0.8c-3.1,0.1-6.2,0-9.3,0c-0.3,0-0.6,0.1-0.9,0.2c-1.5,0.2-2.4,1.3-2.7,3.2
	c-0.2,1.1-0.3,2.2-0.3,3.3c0,5.4,0.4,10.7-0.1,16.1c-0.4,4,0,8,0,12c0,1.3,0.4,2,1.2,2.1c1.4,0.3,2.9,0.2,4.3-0.1
	c3-1.1,6.1-1.7,9.3-1.7c2,0,4-0.8,5.3-2.3c1.3-1.5,2-1.7,3.5-0.5c2.1,1.9,5,2.7,7.9,2.1c2.4-0.3,4.9-0.7,7.3-0.8
	c4.6-0.3,9.2-0.5,13.7-0.7c0.5,0,0.9-0.2,1.3-0.3c2.6-0.5,5.2-0.9,7.8-1c4,0,8,0.7,12-0.1c1.8-0.3,3.6-0.5,5.5-0.5
	c2.1-0.1,4.3,0,6.4,0c1.6,0,3.4-0.7,4.6,0.2c1.4,1,2.3,1,3.5-0.1c0.2-0.2,0.6-0.1,0.9-0.2l4.5-0.4c-3.8-2.1-8.3-2.6-12.5-1.4
	c-2.7,0.8-5.1,0.1-7.6,0.1c0.3-1.4,0.9-1.9,2.1-1.3c0.6,0.2,1.2,0.2,1.7,0c1-0.1,1.9-0.4,2.9-0.5c1.3,0,2.6,0.1,3.9,0
	c2.7-0.1,5.3-0.1,8-0.4c3.3-0.3,6.5,1,9.8,0.1c0.4-0.1,0.8,0.2,1.5,0.4c-1.8,2-4.3-0.3-5.6,2.6c0.7,0.5,1.5,1,2.3,1.3
	c1.8,0.3,3.8,1.1,5.3,0.4c1.9-0.9,3.6-1.6,5.4-0.8c0.2,0.1,0.5,0.1,0.7,0c0.4-0.3,0.7-0.6,1-1c-0.3-0.4-0.7-1.2-1-1.2
	c-2.1-0.2-4.3-0.2-6.4-0.3c-0.2,0-0.3-0.4-0.6-0.7c0.4-0.3,0.9-0.5,1.3-0.6c2.7-0.1,5.5-0.2,8.2-0.1c7.2,0.1,14.3,0.3,21.5,0.4
	c5.7,0.1,11.4,0.2,17.1,0.4c5.3,0.2,10.7,0.6,16.1,0.9c0.6,0.1,1.2,0,1.8-0.1c0.2,0,0.4-0.1,0.6-0.3c-0.1,0-0.1,0,0,0
	c0.5-0.4,0.6-1.1,0.4-1.7c-1.4-0.2-2.7-0.5-4-0.6c-1.4,0-2.7,0-4.1-0.1c-2.6-0.1-5.1-0.1-7.7,0c-1.3,0.3-2.2-1.6-3.7-0.9
	c-1.3,0.5-2.9,0.2-3.9-0.9c1.7-0.2,3.2-0.3,4.7-0.6c0.6-0.2,1.1-0.5,1.5-0.8l0,0l1.1-0.5c0.2,1.1,0.4,2,1.5,1.9c0.5,0,1,0.4,1.5,0.4
	c1,0.1,1.9,0.2,2.4-1.5c0.2-0.7,1.1-1.1,1.8-1.6c0.1-0.1,0.4,0.1,0.6,0.2l-0.7,2.3c2.4,0.6,4.6,2.1,6.7-0.8c0.4-0.6,1.3-0.5,1.3,1
	c0,0.4,0.4,0.8,0.7,1.1c0.5,0.4,0.9,0.9,1.3,1.4c0.2,0.4,0.5,0.7,0.7,1.1l2.5-0.7c-0.4-0.3-0.8-0.7-1-1.2c0.6-1.1,1.2-2.2,1.8-3.3
	c2.1,0.3,4.3,1,6.6-0.5c0.2-0.2,0.6,0,0.9,0.1c0.7,0.3,1.4,0.5,2.1,0.7c0.5,0.1,0.9,0.4,1.1,0.8l9-2.7v-0.3
	c-2.6-0.4-5.1-0.9-7.7-1.2c-1.1-0.3-2.3-0.3-3.4-0.1c-2.2,0.5-4.5,0.4-6.6-0.4c-1.8-0.7-3.8-0.9-5.7-0.6c-2.2,0.5-4.5-0.3-6.8-0.5
	l-0.1-0.6c0.7-0.4,1.3-1.1,2-1.2c1.1-0.1,2.2,0,3.3,0.3c1.1,0.4,2.3,0.4,3.4,0.2c0,0,0,0.1,0,0.1c0,0.2,0.2,0.4,0.5,0.9
	c0.3-0.5,0.5-0.7,0.5-0.9c0-0.2,0-0.2-0.1-0.3c0.8-0.3,1.5-0.5,2.3-0.9c2.7,2.6,5.3,1.8,8.1,0.1c0.9,0.7,1.8,1.4,2.7,2
	c0.4,0.3,0.9,0.4,1.3,0.3c1.5-0.8,3.1-1.7,4.6-2.6c0.6,0.7,1.2,1.8,1.9,1.9c1.6,0.2,3.1,0.3,4.7,0.2c1,0,2.1-0.6,2.9-0.1
	c0.5,0.3,1,0.5,1.5,0.7l5.9-1.8c22.9-7,34.6-10.4,39.2-11.6l0.1-0.1c-2.4-0.1-4.8-0.2-7.1-0.3c-3.6-0.2-7.1-0.6-10.7-0.9
	c-4.8-0.4-9.6-0.7-14.4-1.1c-1.5-0.1-3,0-4.5-0.1c-2.6-0.3-5.1-0.8-7.7-1.3L843,827h-0.9c0,0.2,0,0.4-0.1,0.5
	c-0.1,0.3-0.5,0.6-0.7,0.6c-1.3-0.5-2.9,0.2-4-1.3l0.7-0.1c5.3-0.9,10.8-1.4,16.2-2.3c5.7-0.9,11.3-2,17-3.1
	c1.6-0.3,3.1-0.6,4.5,1.8c0.4-2.4,1.3-2.8,2.5-2.3c1.2,0.6,2,1.2,3.1,1.8c0.5-0.7,0.3-2.9,2-1.9l-0.4,2.4l2.7-0.8
	c0.1-0.7,0.2-1.3,0.3-2.1c2.9-0.8,5.8-1.4,8.7-1.9c5.8-0.5,11.6-0.6,17.3-1c1.3-0.1,2.6-0.3,3.9-0.5c0.4,0,1-0.3,1-0.5
	c0.3-2.7,1.9-1.8,2.9-1.8c1.1-1.6,1.8-3.5,3.5-3.5c2.4,0,4.8,0.2,7.1,0.4c-0.1,0.1-0.2,0.2-0.2,0.3c-1.5,0.4-3.1-0.1-4.8,0.9
	c5.3,1.1,10.7,1.3,12.7,0.4l-1.3-2.1c2.4,0.6,3.6-1,4.8-2.5c0.2-0.2,0.3-0.5,0.5-0.6c1.1-0.6,2.4-2,3.3-1.7c1.8,0.6,3.9-1.4,5.5,0.7
	c0,0.1,0.3,0,0.4-0.1c2.2-1.6,4.8,0.8,6.9-1.5c0.1-0.1,0.3,0.1,0.4,0.1c2.4,0.2,4.8,0.5,7.2,0.7c0.1,0,0.3-0.3,0.7-0.7
	c-4.2-0.7-8.2-1.9-12.2-0.9c-0.6,0.1-1.3,0.3-1.7-0.8c0.2-0.2,0.4-0.5,0.6-0.6c2-0.2,4.1-0.3,6.1-0.2c1.4,0.2,2.3-0.3,2.7-2.2
	l7.3-0.2c-1.2,2.7-3.2,1.4-4.7,2.8l5.4,0.3l-1.8,2.7l5.8,0.3c1.3,0,2.5,0,3.8,0.1c1,0,2,0.4,3-0.6l-5.4-1.8c1.5,0.2,2.9,0.3,4.4,0.2
	c1.6-0.4,3.2,0.5,3.7,2c1.3-1.5,1.3-4.3,3.9-4.6c1.9-0.2,3.7-0.9,5.4,0.8c0.6-0.9,1-1.5,1.5-2.3c-1.4-1.4-2.9-0.6-4.1-0.7l-1.7-2.9
	c1.6-1,3.7-1,5.3,0c0.9,0.7,1.9,1.3,2.9,1.8c0.7,2.4-1.7,2.1-2.1,3.8c0.9,0.9,2.1,1.3,3.4,1.2c2.1-0.3,4.1-1.2,6.2-0.1
	c1.1,0.5,2.4,0.5,3.6,0.2c2.4-0.4,4.8-0.5,7.1-0.3c1.5,0.1,3,0.4,4.5,0.5c0.8-0.1,1.5-0.2,2.3-0.5l-7.1-1.8c-1.3-0.3-2.8-1.4-4-0.9
	c-2.5,1.2-4.8-0.3-7.2,0.3c-0.1,0-0.3-0.4-0.7-0.9c1.7-0.3,3.1-0.9,4.5-0.7c2.4,0.4,4.6-0.5,7-0.8c0.8-0.1,1.6-1,2.4-1
	c2.9-0.1,5.8,0,8.6,0c0.4,0,0.9,0.4,1.3,0.5c0.5,0.2,0.8,0.4,1.1,0.2c1.2-0.9,2.2,0,3.3,0.3c0.9,0.2,1.8,0.4,2.7,0.5
	c3.3,0.2,6.5,0.4,9.8,0.5c0.4,0,0.8,0,1.1,0c0.8-0.1,1.7-0.3,2.6-0.5c1.6,0.1,3.2,0.2,4.7,0.3c0.2,0,0.5,0,0.7,0
	c0.1,0,0.2-0.2,0.7-0.5c-1.9,0-3.5-0.1-5,0h-0.2c-2.3-1.6-5.3,0.4-7.6-2.1c0.8-1.3,1.7-0.9,2.5-0.8c1.2,0.1,2.4,0.2,3.6,0.4
	c1.2,0.2,2.1,0.4,3.1,0.6l0,0c3.9,1.1,5.7,1,7.4-0.7c-0.9-0.2-1.6-0.3-2.3-0.4c-0.7-0.1-1.8,0.3-1.5-1.2l2.3-0.9l0.9,1.3
	c0.5-0.5,1-1,1.5-1.5v-0.1c1.3,0.8,2.9,0.4,3.7-0.8l-1.2-1.9c2,0.1,3.7,0.2,5.3,0.3c4.2,0.4,8.4,0.9,12.5,1.2c0.7,0,1.3-0.6,2-1.1
	C1080,790.3,1079.9,789.8,1079.7,789.3z"/>
<path class="st1" d="M833.5,848.3c4.5-1.3,8.3-2.4,9.9-2.9c-0.3,0-0.5,0-0.8,0l-9.2,2.7C833.5,848.2,833.5,848.3,833.5,848.3z"/>
<path class="st1" d="M930.3,811.4h0.3c-0.1,0-0.1,0.1-0.2,0.1L930.3,811.4z"/>
<path d="M102.6,390.3c1.4,3.3,2.5,6.7,3.4,10.2c0.8,3.1,1.8,6.1,2.9,9.7c0.3,0.5,0.3,1,0.5,1.3c4.2,2.5,9,4.1,14,4.6l14.7-16.6
	c0.9-1.1,1.7-2.3,2.4-3.6c3.4-4.1,6.6-7.9,9.7-11.7c3-3.7,6.6-6.9,10.5-9.7c7.5-4,15.7-6.7,24.2-7.9c4.4-0.9,9-1.1,13.4-0.5
	c2.9,0.7,5.7,1.7,8.4,2.8c4.7,1.6,9.2,3.5,13.5,5.8c4.2,2.8,7.9,8.7,10.8,12.7c1.8,4.3,3,8.9,3.4,13.5c0.5,2.6-0.8,9.4-1.6,12.2
	c0,0.3-0.3,0.5-0.3,1l5.5,3.1v18.1h-17.9c-1.4-1.1-2.9-2.1-4.5-3.1c-2.1,1-4.5,2-7.1,3.1c-4.5,1.8-9.5,2.6-14,4.3
	c-5.5,1.5-11.6,1.8-17.3,2.6c-5.5,0-11.1,0.3-16.9,0.3H149c-16.9,0-26.9-1.5-34.7-4.6c0.3,2.3,0.3,4.6,0,6.9c0,2.6-0.3,5.1-0.8,7.6
	c-0.3,2-0.8,4.6-1.3,6.9c-1.3,4.1-4.2,8.4-6.6,12c-1.3,1.5-2.7,2.8-4.2,4.1c-2.1,2-4.5,3.9-6.6,5.6c-1.4,1-2.9,1.8-4.5,2.6
	c-2.9,1.3-5.8,2-8.2,3.6c-1.6,0.8-2.9,1.3-4.5,2c-3.4,1.3-6.9,2.2-10.5,2.8c-0.5,0-1.3,0.3-1.9,0.3c-4.6,0.8-9.3,1.3-14,1.3
	c-5.5,0.2-10.9-0.1-16.3-1c-0.5-0.3-1.1-0.3-1.6-0.5c-9.2-2-17.9-6.6-23.4-14.3c-3.3-3.5-5.6-7.7-6.9-12.2c-2-4.9-3.1-10.1-3.1-15.3
	c0.3-1.3,0.3-2.6,0.5-3.6c0.2-4.3,0.9-8.6,2.1-12.7c0.6-1.4,1.1-2.9,1.6-4.3c1.1-3.1,2.1-6.4,3.4-9.4c2.1-4.8,3.4-8.4,4.7-11.7
	l12.1,3.1l-4,15.3l-2.7,13.5c-0.8,5.5,0.6,11,4,15.5l0.8,1.3c2.7,3.9,6.6,6.9,11.1,8.7c0.7,0.5,1.5,0.8,2.4,1
	c4.5,1.5,10.5,2,17.1,2.6h1.3c11.8-0.6,23.4-3.3,34.2-7.9c5-2.8,7.9-3.9,10-6.4c0.5-2.3-0.3-5.3-0.8-9.2c-1-4.4-2.3-8.8-4-13
	c-0.5-1-0.9-2.2-1.1-3.3c-1.8-5.1-2.9-9.7-5-14.8c-0.3-1.3-0.8-2.6-1.3-3.9c-1.6-4.6-3.7-9.7-5-12.7L102.6,390.3z M151.6,402.3
	c-1.1,1.3-2.1,2.6-2.9,4.1c-3.2,3.3-6.8,7.1-10,11c5.8,0.3,12.4,0.3,20.5,0.3h4c9.7-0.3,19.2,0.3,28.2-1.5
	c5.7-0.5,11.3-1.4,16.9-2.8c3.7-1.3,7.6-1.3,10.5-3.9c-1.5-3.1-3.5-6-5.8-8.7c-2.7-3.9-7.6-6.6-12.4-9.4c-4-2-9.2-2.8-14.8-2.8
	c-8.7,0-17.1,2.3-25.3,4.6C157.7,396.2,154.5,399.2,151.6,402.3L151.6,402.3z"/>
<path d="M220.4,417.3h17.9c6.6,3.1,15.3,5.4,25.6,6.9c9,1.3,19,1.3,29.8,1.8c12.1,0.5,25,1,37.9,0.5c13.4-0.8,26.6-2.8,38.5-4.1
	c16.6-1.8,30.6-2.6,39.2-4.8h10.5v16.8c-17.3,8.9-80.6,17.3-101.7,17.3c-9.8,0-19.5-0.5-29-1c-22-1-50.1-2.3-68.7-15.2V417.3z"/>
<path d="M424.3,413.5c0-4.8,0.3-9.9,1.3-12.7c1.3-4.8,3.2-9.5,5.8-13.8c2.7-3.6,6.6-6.1,9.7-8.9c3.7-2.3,7.1-6.1,11.8-7.4
	c5.5-1.8,9.8-1.3,15-1.8l11.6,0.3c2.8,11.7,6.4,23.2,10.8,34.4c2.3,3.6,5.2,6.9,8.4,9.7c3.7,3.6,8.7,4.6,13.4,4.3v20.1l-7.6,4.8
	c-4.2,0-9.2-0.8-11.8-2.8c-2.1-1.2-3.9-2.6-5.5-4.3l-6.7,14.3l-19.7-5.4c-4.2-1.5-14.2-5.3-16.6-6.4c-7.4-3.1-12.4-5.9-15.5-9.4
	c-0.8-1-1.3-1.8-1.8-2.6c-1.1,3.6-3.6,6.7-7.1,8.4h-10.5v-16.8C412.4,416.8,418.7,415,424.3,413.5z M445.1,392.3
	c-2.7,4.9-4.9,10-6.6,15.3c0,3.1,2.7,4.3,6.6,5.9l15.3,6.6l13.7,4.1l6.3,2.3c-0.8-1.8-1.7-3.5-2.7-5.1c-2.7-4.6-4.8-9.9-6.9-14
	c-2.4-5.3-4.5-11.2-7.1-17.1C457.5,390.6,451.2,391.3,445.1,392.3z"/>
<path d="M536.4,324.9c-0.9-0.5-1.6-1.1-2.3-1.9c-0.3-0.3-0.5-0.7-0.7-1.1c-0.5-0.9-0.9-1.8-1-2.8c-0.1-1.2,0-2.5,0.3-3.6
	c0.5-1.5,1.1-2.9,2-4.3l0.3-0.5c1-1.5,2.3-2.8,3.9-3.8c0.9-0.6,2-1.1,3.1-1.3c1.4-0.3,2.8-0.1,4,0.5l0.5,0.2c1.1,0.5,2,1.2,2.7,2.2
	c0.3,0.3,0.5,0.6,0.8,0.9c0.5,1,0.9,2,1.1,3c0.3,0.5,0.4,1.1,0.3,1.7c0.3,1.9,0.4,3.9,0.3,5.8c0,0.6-0.2,1.3-0.2,1.9l1,0.2l4.9,1.6
	l-3.1,8.2l-5.2-2.1c-0.3,0.6-0.5,1.3-0.8,1.7c-0.4,0.4-0.7,0.8-1,1.3c-0.8,0.9-1.6,1.7-2.4,2.6c-0.3,0.2-0.6,0.4-0.8,0.6
	c-1.1,0.9-2.5,1.6-3.4,2.4c-1.7,1.3-3.7,2.2-5.7,2.8h-10.8v-3.1c1.5-0.8,2.9-1.6,4.2-2.2l2.4-0.9c0.5-0.3,0.9-0.6,1.5-0.8
	c1.3-0.5,2.5-0.9,3.6-1.4c2.7-1.1,4.7-1.7,6.5-2.4c1.3-0.4,2.6-1,3.8-1.6c-0.8-0.3-1.8-0.6-2.7-0.9c-1.5-0.5-2.8-1.1-3.6-1.4
	C538.8,326,537.6,325.5,536.4,324.9z M547,320.3c-0.2-0.2-0.2-0.5-0.2-0.8c-0.1-1.3-0.5-2.6-1-3.8c-0.5-1.1-1.4-2.1-2.4-2.7
	c-0.8-0.5-1.7-0.8-2.7-0.8c-1.1,0.1-2.2,0.5-3.1,1.1c-0.8,0.8-1,2-0.3,3c1.2,0.6,2.4,1,3.6,1.4c0.8,0.3,2.1,0.9,3.6,1.6L547,320.3z"
	/>
<path d="M522.8,398.5l-9.7-8.4c4.5-7.1,12.1-17.8,19.5-22.4c3.4-1.3,7.6-3.6,13.4-3.6c4-0.5,9,1.3,11.8,2.6c4,1.8,7.7,4.1,11.1,6.9
	c3.7,2.8,6.8,4.3,10.3,7.4c4.2,3.3,20.8,12.7,25.6,13.7c4.5,1,11.6,3,17.3,2.8h7.9v19.4h-8.2c-7.4,0.2-14.2,0-19.7,1
	c-6.6,0.5-11.3,2-16.3,3.3c-11.8,2.6-18.4,4.1-29.8,8.7c-8.3,3.6-16.9,6.5-25.8,8.7c-8.2,2.6-16.8,4-25.5,4.1v-18.8l7.4-6.1
	c5,0,10.8,0,15.5-0.3c4.8-0.3,9.5-1,14.2-2c13.8-1.4,27.3-4.4,40.3-8.9c-3.2-1.5-6.1-3.6-9.2-4.8c-7.9-3.3-14.2-8.7-21.6-12.2
	c-3.8-1.1-7.7-1.9-11.6-2.3L522.8,398.5z"/>
<path d="M30.5,647.6c-8.7-6.1-9-11.2-9.5-14c-0.5-5.6-1.6-10.2-1.6-15.3l-0.5-14.8l0.8-13.5l0.3-14.8l-0.8-13.8l0.8-14.2L19.4,534
	l0.3-14.3h19.5v27.5l-0.8,15.3l0.3,15.3l-0.3,15.8l0.3,9.9v7.9c0.3,7.6,2.7,14.8,9.7,18.1v18.1L30.5,647.6z"/>
<path d="M30.5,629.5h17.9c10.8,5.4,69.8,11.7,83.8,12.2c19,0.8,39,2.3,59.5,2.3c21.1-0.3,42.1-2.6,62.4-3.6
	c19.2-0.8,37.4-0.5,53.5-1.8c26.3-2.3,47.7-5.6,59.3-8.9h10.5v16.8c-10,5.1-37.1,11-72.4,15.3c-16.3,1.8-34.5,2.3-53.2,3.6
	c-21.9,1.5-44.8,4.3-67.2,4.6c-21.1,0.5-41.6-1.3-60.6-2.3c-18.4-1-35.6-4.3-50.3-7.1c-19-3.3-34-6.6-43.2-13L30.5,629.5z"/>
<path d="M395.8,578.5l2.7,23.4c0.8,6.1,0.8,12.3,0,18.4c-1.1,5.8-2.4,9.7-3.4,13.7c-4,5.4-10.5,8.9-17.7,12.5h-10.5v-16.7
	c4.4-1,8.6-2.4,12.6-4.3c1.1-4.6,0-8.9-0.5-19.4l-2.4-24.7L395.8,578.5z M384,534.7c3.4,0,7.1,0.8,9.2,3.6c2.4,2.3,3.8,5.4,4,8.7
	c-0.2,3.3-1.6,6.5-4,8.9c-2.5,2.4-5.7,3.8-9.2,4.1c-6.8,0-12.9-6.6-12.9-13C371.2,540.1,376.9,534.7,384,534.7z"/>
<path d="M481.4,633.8c-0.3,0.8-0.8,1.5-1.1,2.3c-3,4.8-7,9.1-11.6,12.5c-10.5,5.6-14,6.1-25.8,6.1c-4.8,0-9.5-0.6-14.2-1.5
	c-5.3-1.5-11.3-2.8-15.5-5.2l3.4-18.9c7.6-0.5,22.7-0.2,26.9-0.2c7.2,0.3,14.3-0.3,21.4-1.8c5.3-1.5,9.5-3.6,10.8-5.3l-3.4-8.2
	l-9-17.5l-5.8-13.2l-6.1-12.4l17.6-10.7l12.6,29.3l11.6,29.3c5.5,10.9,14,11.5,21.6,11.5v21.9l-7.4,3.1c-14.2,0-19.5-8.7-25.6-19.4
	L481.4,633.8z"/>
<path d="M533,628.5c-0.6-3.4-0.9-6.8-0.8-10.2l-0.8-14.8l1.1-13.5v-14.8l-0.8-13.8l0.8-14.2L532,534l0.5-14.3H552v27.5l-0.8,15.3
	l0.3,15.3l-0.3,15.8v17.8c0.3,8.9,1.1,12,4.7,14.5c2.9,2.3,6.8,3.3,15.5,3.9v20.9l-7.6,4.1c-4.5,0.3-9.2-1-14.2-2.6
	c-5.3-1.5-9.2-6.1-12.4-10.2c-1.7,2.3-3.6,4.5-5.5,6.6c-6.8,4.8-15.5,6.1-24.2,6.1v-18.4l7.6-6.6C521.1,629.9,527.1,629.4,533,628.5
	z"/>
<path d="M610.7,578.5l2.7,23.4c0.8,6.1,0.8,12.3,0,18.4c-1.1,5.8-2.7,9.9-3.7,14c-1.6,3.9-4.8,7.4-7.4,10.7
	c-2.4,2.8-6.3,3.6-10.8,5.9c-4.1,1.3-8.2,2.3-12.4,3.1c-5,0.5-10.5,0.8-15.3,0.8V634l7.6-4.3c10.8,0,19-2,22.7-4.1
	c1.3-4.6,0-9.2-0.5-19.6l-2.4-24.7L610.7,578.5z M592.8,674c3.4,0,7.1,0.8,9.2,3.6c2.4,2.3,3.8,5.4,4,8.7c-0.2,3.3-1.6,6.5-4,8.9
	c-2.5,2.4-5.7,3.8-9.2,4.1c-6.9,0-12.9-6.6-12.9-13C580,679.5,585.8,674,592.8,674L592.8,674z"/>
<path class="st3" d="M77.3,566.8l70.2-16.5c24.7-5.2,48.4-10,73-15l110.2-20.9c18.6-3.5,23.6-0.4,30.2-17.4
	c-30.1,1.9-190,35.3-220.8,42.4l-53,13.2C83.6,554.3,78.2,560.7,77.3,566.8L77.3,566.8z"/>
</svg>
